<svg xmlns="http://www.w3.org/2000/svg" width="166" height="24" viewBox="0 0 166 24" fill="none">
    <g clip-path="url(#clip0)">
        <path d="M24.1869 7.62481H29.3918L26.726 23.7178H21.5211L24.1869 7.62481ZM24.9564 2.25116C25.0214 1.79535 25.3363 1.49147 25.8461 1.49147H29.8139C30.2912 1.49147 30.4568 1.82636 30.3919 2.25116L29.9016 5.32093C29.8367 5.77674 29.512 6.01861 29.0671 6.01861H25.0993C24.6545 6.01861 24.4012 5.74574 24.4629 5.32093L24.9564 2.25116ZM39.6264 7.40465C33.8662 7.40465 31.5478 8.75349 30.4698 15.3302C29.5185 21.0884 31.1939 23.8698 37.0093 23.8698C42.9448 23.8698 45.0391 22.4372 46.0392 16.4651C47.0685 10.2512 45.3865 7.40465 39.6264 7.40465ZM40.831 15.8977C40.1654 19.7457 39.7043 20.0341 37.5613 20.0341C35.5287 20.0341 35.0384 19.5876 35.6748 15.8977C36.3501 11.9101 36.7203 11.2372 39.0159 11.2372C41.2758 11.2372 41.4901 11.9876 40.831 15.8977ZM45.2339 1.53178H62.7872L62.0242 6.04651H55.7542L52.8352 23.7178H47.6302L50.5493 6.04651H44.4709L45.2339 1.53178ZM72.3821 11.8295C72.5736 8.06512 69.0831 7.16899 65.5829 7.1907C59.3941 7.23721 57.9492 9.31163 56.9653 14.2543C55.8224 20.1333 57.1861 23.5535 61.2254 23.8015C65.0731 24.0744 67.8265 23.6651 70.3267 22.9209L70.9631 19.4047C69.1773 19.7147 66.1381 19.9876 64.4399 19.9442C62.1865 19.938 61.5598 19.4915 61.8943 17.5039C63.0664 17.9597 72.0411 19.4233 72.3821 11.8295ZM65.1932 11.0264C66.5894 11.0047 67.2746 11.3612 67.0343 12.6264C66.5667 15.1256 62.3131 14.2791 62.3131 14.2791C62.6313 12.5643 62.9333 11.0729 65.1932 11.0264ZM80.334 7.34264C81.9835 7.34264 85.7305 7.57209 88.1268 8.37519L87.6365 11.3767C87.6365 11.3767 85.1363 11.1783 82.3114 11.1783C80.2236 11.1783 79.3988 11.3085 78.6131 15.7333C77.9474 19.6372 78.6066 20.0527 80.834 20.0527C83.7531 20.0527 86.4773 19.786 86.4773 19.786L85.9773 22.8031C83.5647 23.7271 81.5029 23.9318 77.7007 23.8791C74.5348 23.8481 72.3756 21.2279 73.4406 14.9736C74.5706 8.32868 77.1584 7.34264 80.334 7.34264ZM91.5751 0H96.7573L95.2182 9.27442C96.5592 8.35039 98.0334 7.34884 100.605 7.34884C104.732 7.34884 105.135 9.96899 104.596 13.1845L102.842 23.7178H97.6372L99.3939 13.0946C99.6406 11.6403 99.1633 11.1845 98.2282 11.1845C96.7118 11.1845 95.7605 11.5628 94.7214 12.4589L92.8479 23.7178H87.643L91.5751 0ZM160.129 1.51938H162.376V1.81395H161.402V4.42791H161.074V1.81395H160.129V1.51938ZM162.83 1.51938H163.282L164.145 3.93798L164.98 1.51938H165.428L165.675 4.42791H165.347L165.146 2.05271L164.314 4.42791H163.98L163.123 2.05271L162.947 4.42791H162.619L162.83 1.51938ZM109.323 1.51938H112.288L110.132 14.5488C109.245 19.9008 110.622 21.2775 114.337 21.2775C118.291 21.2775 120.165 19.5721 120.993 14.5488L123.149 1.51938H126.12L123.987 14.6853C123.12 19.8698 121.214 23.9907 114.038 23.9907C108.937 23.9907 105.979 21.6589 107.18 14.4093L109.323 1.51938ZM126.178 20.9891C127.526 21.1628 131.078 21.2992 134.036 21.2992C135.351 21.2992 137.842 21.1194 138.218 18.7876L138.523 16.9581C138.79 15.355 138.731 14.2264 136.465 14.2264H132.37C127.214 14.2264 127.117 10.9488 127.471 8.7969L127.792 6.71008C128.568 2.02171 131.555 1.24961 135.01 1.33953C137.15 1.37364 141.248 1.77985 143.043 2.10853L142.686 4.31938C141.033 4.28837 135.202 4.04341 134.887 4.04341C132.575 3.93798 131.153 4.25736 130.714 6.93023L130.435 8.68527C129.951 11.5907 131.377 11.4326 133.068 11.4326H137.179C141.231 11.4326 141.858 14.3566 141.459 16.8403L141.15 18.8837C140.468 23.6651 136.465 24 133.776 24C131.029 24 127.224 23.5597 125.821 23.2248L126.178 20.9891ZM156.817 1.51938H153.713L141.611 23.8388H144.839L148.044 17.9659H157.005L158.165 23.8388H161.155L156.817 1.51938ZM149.437 15.2961L154.742 5.33023L156.564 15.2961H149.437ZM12.0853 23.7426C16.9721 23.7426 19.5145 22.9457 20.2678 17.7643C20.6866 14.7318 19.3067 12.5364 17.339 12.2233C19.5307 11.9659 21.0698 10.186 21.401 8.01861C21.9594 4.56434 20.521 1.55349 15.6505 1.55349H3.72431L3.00347 5.84496H14.592C15.6246 5.84496 16.4948 6.28527 16.2123 8.01861C16.0142 9.27752 15.1895 10.0961 13.8809 10.0961H6.73427H2.29238L1.61051 14.1581L0.720834 19.4543L0 23.7426H4.48735H12.0853ZM6.06539 14.1581H13.4296C15.0239 14.1581 15.3421 15.4605 15.105 16.862C14.7868 18.7628 13.8517 19.4543 12.5659 19.4543H5.1952L6.06539 14.1581Z" fill="#36474E"/>
    </g>
    <defs>
        <clipPath id="clip0">
            <rect width="165.6" height="24" fill="white" transform="matrix(1 0 0 -1 0 24)"/>
        </clipPath>
    </defs>
</svg>